<?xml version="1.0" encoding="utf-8"?>
<!-- Generator: Adobe Illustrator 16.0.4, SVG Export Plug-In . SVG Version: 6.00 Build 0)  -->
<!DOCTYPE svg PUBLIC "-//W3C//DTD SVG 1.1//EN" "http://www.w3.org/Graphics/SVG/1.1/DTD/svg11.dtd">
<svg version="1.1" xmlns="http://www.w3.org/2000/svg" xmlns:xlink="http://www.w3.org/1999/xlink" x="0px" y="0px"
	 width="299.029px" height="68.043px" viewBox="0 0 299.029 68.043" enable-background="new 0 0 299.029 68.043"
	 xml:space="preserve">
<g id="Layer_1">
</g>
<g id="Layer_2">
	<g>
		<path fill="#FF57C3" d="M45.316,54.178l-6.954-9.572h-3.003l-4.697-6.466c2.531-0.542,4.708-1.586,6.548-3.107h-5.005
			c0.784-0.648,1.513-1.375,2.171-2.201c1.7-2.135,2.737-4.594,3.125-7.371h7.007c0.115-0.821,0.18-1.666,0.18-2.543
			c0-2.618-0.513-4.956-1.508-7.03h-4.004c-0.876-1.825-2.12-3.448-3.766-4.853c-3.188-2.694-8.367-4.043-15.539-4.043h-9.598v8.896
			h4.004v9.573H7.271v9.572h5.005v9.573h3.003v9.572h-5.005v7.095h8.191v-7.095h5.005v-9.572h-3.003v-5.552h1.477l3.874,5.552h3.003
			l6.68,9.572h-5.005l4.95,7.095h10.02l-5.153-7.095H45.316z M18.063,31.917h-2.602V25.46h7.007v-9.573h-4.004V14.69h2.918
			c2.857,0,5.171,0.4,6.946,1.196h4.004c2.914,1.307,4.374,3.684,4.374,7.136c0,0.881-0.096,1.688-0.267,2.438h-7.007
			C28.452,29.759,24.669,31.917,18.063,31.917z"/>
		<polygon fill="#FF57C3" points="53.621,15.887 57.625,15.887 57.625,25.46 50.618,25.46 50.618,35.032 55.623,35.032 
			55.623,44.605 58.626,44.605 58.626,54.178 53.621,54.178 53.621,61.272 83.574,61.272 83.574,54.178 83.574,53.573 
			66.817,53.573 66.817,44.605 63.814,44.605 63.814,35.433 79.938,35.433 79.938,35.032 79.938,27.733 58.81,27.733 58.81,25.46 
			65.816,25.46 65.816,15.887 61.812,15.887 61.812,14.69 83.574,14.69 83.574,6.991 53.621,6.991 		"/>
		<polygon fill="#FF57C3" points="94.332,15.887 98.336,15.887 98.336,25.46 91.329,25.46 91.329,35.032 96.334,35.032 
			96.334,44.605 99.337,44.605 99.337,54.178 94.332,54.178 94.332,61.272 102.523,61.272 102.523,54.178 107.528,54.178 
			107.528,44.605 104.525,44.605 104.525,35.433 117.767,35.433 117.767,35.032 117.767,27.733 99.521,27.733 99.521,25.46 
			106.527,25.46 106.527,15.887 102.523,15.887 102.523,14.69 121.438,14.69 121.438,6.991 94.332,6.991 		"/>
		<polygon fill="#FF57C3" points="144.126,54.177 144.126,53.573 144.126,44.605 141.124,44.605 141.124,35.032 136.119,35.032 
			136.119,25.46 143.125,25.46 143.125,15.887 139.122,15.887 139.122,6.991 130.93,6.991 130.93,15.887 134.934,15.887 
			134.934,25.46 127.927,25.46 127.927,35.032 132.932,35.032 132.932,44.605 135.935,44.605 135.935,54.178 130.93,54.178 
			130.93,61.272 155.083,61.272 155.083,54.178 150.08,54.178 		"/>
		<path fill="#FF57C3" d="M216.656,35.032h-5.005c0.007-0.276,0.019-0.551,0.019-0.83c0-3.092-0.449-6.004-1.331-8.742h7.007
			c-1.12-3.477-2.952-6.667-5.494-9.573h-4.004c-0.479-0.549-0.977-1.09-1.507-1.618c-4.418-4.418-9.54-7.065-15.363-7.955
			c-1.468-0.224-2.979-0.342-4.535-0.342c-1.582,0-3.116,0.118-4.606,0.342c-5.883,0.885-11.052,3.509-15.503,7.885
			c-0.562,0.551-1.089,1.115-1.595,1.688h4.004c-2.573,2.91-4.417,6.101-5.53,9.573h-7.007c-0.848,2.646-1.277,5.453-1.277,8.426
			c0,0.387,0.014,0.767,0.025,1.146h5.005c0.111,3.464,0.725,6.656,1.844,9.573h3.003c1.385,3.609,3.541,6.8,6.47,9.572h-5.005
			c0.285,0.271,0.572,0.54,0.872,0.802c5.578,4.852,11.871,7.277,18.879,7.277c7.866,0,14.586-2.694,20.165-8.079h5.005
			c0.039-0.038,0.08-0.073,0.12-0.112c2.904-2.831,5.046-5.986,6.438-9.46h-3.003C215.932,41.647,216.567,38.456,216.656,35.032z
			 M205.545,48.687c-2.887,2.904-6.262,4.729-10.118,5.491h-5.005c-1.372,0.271-2.802,0.415-4.296,0.415
			c-1.389,0-2.73-0.145-4.032-0.415h5.005c-3.62-0.752-6.906-2.541-9.854-5.386c-1.33-1.275-2.418-2.679-3.31-4.187h-3.003
			c-1.65-2.793-2.547-5.984-2.692-9.573h-5.005c-0.015-0.348-0.045-0.687-0.045-1.041c0-3.119,0.6-5.956,1.757-8.531h7.007
			c0.965-2.146,2.311-4.114,4.079-5.883c1.513-1.53,3.162-2.755,4.94-3.69h-4.004c2.796-1.471,5.916-2.216,9.368-2.216
			c3.467,0,6.588,0.745,9.371,2.216h4.004c1.771,0.936,3.408,2.16,4.902,3.69c1.745,1.767,3.075,3.734,4.032,5.883h-7.007
			c1.165,2.612,1.769,5.495,1.769,8.672c0,0.306-0.028,0.6-0.039,0.9h5.005c-0.132,3.533-1.035,6.724-2.711,9.573h3.003
			C207.817,46.051,206.792,47.418,205.545,48.687z"/>
		<polygon fill="#FF57C3" points="288.506,25.46 292.528,15.887 288.524,15.887 292.263,6.991 283.368,6.991 279.688,15.887 
			283.691,15.887 279.73,25.46 272.724,25.46 268.763,35.032 273.768,35.032 270.358,43.272 267.366,35.032 262.361,35.032 
			258.885,25.46 265.892,25.46 262.415,15.887 258.411,15.887 254.935,6.313 254.224,4.354 253.48,6.313 249.849,15.887 
			253.853,15.887 250.22,25.46 243.213,25.46 239.581,35.032 244.586,35.032 241.46,43.272 238.25,35.032 233.245,35.032 
			229.517,25.46 236.523,25.46 232.794,15.887 228.79,15.887 225.325,6.991 216.431,6.991 219.982,15.887 223.986,15.887 
			227.809,25.46 220.802,25.46 224.624,35.032 229.629,35.032 233.451,44.605 236.454,44.605 240.275,54.178 235.271,54.178 
			239.093,63.751 239.493,64.753 239.872,63.751 243.491,54.178 248.496,54.178 252.115,44.605 249.112,44.605 252.732,35.032 
			247.728,35.032 251.045,26.257 254.229,35.032 259.234,35.032 262.708,44.605 265.711,44.605 269.185,54.178 264.18,54.178 
			267.654,63.751 268.005,64.718 268.411,63.751 272.434,54.178 277.438,54.178 281.461,44.605 278.458,44.605 282.481,35.032 
			277.477,35.032 281.499,25.46 		"/>
	</g>
</g>
</svg>
